<svg width="1280" height="360" viewBox="0 0 1280 360" fill="none" xmlns="http://www.w3.org/2000/svg">
  <rect width="1280" height="360" fill="#0d1117"/>
  <defs>
    <radialGradient id="glowA" cx="0" cy="0" r="1" gradientUnits="userSpaceOnUse" gradientTransform="translate(120 60) rotate(45) scale(420)">
      <stop stop-color="#3fb950" stop-opacity="0.35"/>
      <stop offset="1" stop-color="#3fb950" stop-opacity="0"/>
    </radialGradient>
    <radialGradient id="glowB" cx="0" cy="0" r="1" gradientUnits="userSpaceOnUse" gradientTransform="translate(1060 300) rotate(45) scale(460)">
      <stop stop-color="#a371f7" stop-opacity="0.22"/>
      <stop offset="1" stop-color="#a371f7" stop-opacity="0"/>
    </radialGradient>
    <pattern id="dots" width="22" height="22" patternUnits="userSpaceOnUse">
      <circle cx="1" cy="1" r="1" fill="#ffffff" opacity="0.08"/>
    </pattern>
  </defs>

  <rect width="1280" height="360" fill="url(#dots)" opacity="0.55"/>
  <rect width="640" height="360" fill="url(#glowA)"/>
  <rect x="640" width="640" height="360" fill="url(#glowB)"/>

  <g opacity="0.07" stroke="#e6edf3" stroke-width="2.4" stroke-linecap="round" transform="translate(980 -45) scale(3.8)">
    <line x1="50" y1="6" x2="50" y2="94"/>
    <line x1="12" y1="28" x2="88" y2="72"/>
    <line x1="12" y1="72" x2="88" y2="28"/>
    <line x1="50" y1="6" x2="42" y2="18"/><line x1="50" y1="6" x2="58" y2="18"/>
    <line x1="50" y1="94" x2="42" y2="82"/><line x1="50" y1="94" x2="58" y2="82"/>
    <line x1="12" y1="28" x2="14" y2="42"/><line x1="12" y1="28" x2="26" y2="26"/>
    <line x1="88" y1="72" x2="86" y2="58"/><line x1="88" y1="72" x2="74" y2="74"/>
    <line x1="12" y1="72" x2="26" y2="74"/><line x1="12" y1="72" x2="14" y2="58"/>
    <line x1="88" y1="28" x2="74" y2="26"/><line x1="88" y1="28" x2="86" y2="42"/>
  </g>

  <g transform="translate(64 58)">
    <rect x="0" y="0" width="10" height="10" rx="2" fill="#3fb950"/>
    <text x="22" y="10" fill="#7d8590" font-family="ui-monospace, SFMono-Regular, Menlo, Consolas, monospace" font-size="13" letter-spacing="3">DEVOPS · MLOPS · NIXOS · GITOPS</text>

    <text x="0" y="108" fill="#e6edf3" font-family="Inter, ui-sans-serif, system-ui, -apple-system, BlinkMacSystemFont, Segoe UI, sans-serif" font-size="68" font-weight="800" letter-spacing="-2">Patrick Kappen</text>
    <text x="0" y="154" fill="#3fb950" font-family="Inter, ui-sans-serif, system-ui, -apple-system, BlinkMacSystemFont, Segoe UI, sans-serif" font-size="28" font-weight="700">Senior DevOps Engineer · MLOps / AI Enthusiast</text>
    <text x="0" y="198" fill="#8b949e" font-family="Inter, ui-sans-serif, system-ui, -apple-system, BlinkMacSystemFont, Segoe UI, sans-serif" font-size="21" font-weight="500">Reproducible infrastructure, automation, platform tooling, and local-first systems.</text>

    <g transform="translate(0 236)" font-family="ui-monospace, SFMono-Regular, Menlo, Consolas, monospace" font-size="13" font-weight="600">
      <rect x="0" y="0" width="74" height="32" rx="16" fill="#161b22" stroke="#30363d"/>
      <text x="18" y="21" fill="#adbac7">NixOS</text>
      <rect x="86" y="0" width="66" height="32" rx="16" fill="#161b22" stroke="#30363d"/>
      <text x="108" y="21" fill="#adbac7">Rust</text>
      <rect x="164" y="0" width="110" height="32" rx="16" fill="#161b22" stroke="#30363d"/>
      <text x="186" y="21" fill="#adbac7">Kubernetes</text>
      <rect x="286" y="0" width="72" height="32" rx="16" fill="#161b22" stroke="#30363d"/>
      <text x="310" y="21" fill="#adbac7">Talos</text>
      <rect x="370" y="0" width="78" height="32" rx="16" fill="#161b22" stroke="#30363d"/>
      <text x="392" y="21" fill="#adbac7">AI Ops</text>
      <rect x="460" y="0" width="84" height="32" rx="16" fill="#161b22" stroke="#30363d"/>
      <text x="482" y="21" fill="#adbac7">GitOps</text>
    </g>
  </g>

  <g transform="translate(780 82)">
    <rect x="0" y="0" width="420" height="214" rx="14" fill="#161b22" stroke="#30363d"/>
    <rect x="0" y="0" width="420" height="38" rx="14" fill="#0d1117" stroke="#30363d"/>
    <circle cx="20" cy="19" r="5" fill="#ff7b72"/>
    <circle cx="38" cy="19" r="5" fill="#d29922"/>
    <circle cx="56" cy="19" r="5" fill="#3fb950"/>
    <text x="82" y="24" fill="#7d8590" font-family="ui-monospace, SFMono-Regular, Menlo, Consolas, monospace" font-size="12">platform.flow</text>

    <text x="24" y="72" fill="#8b949e" font-family="ui-monospace, SFMono-Regular, Menlo, Consolas, monospace" font-size="14">git</text>
    <text x="82" y="72" fill="#3fb950" font-family="ui-monospace, SFMono-Regular, Menlo, Consolas, monospace" font-size="14">→</text>
    <text x="112" y="72" fill="#79c0ff" font-family="ui-monospace, SFMono-Regular, Menlo, Consolas, monospace" font-size="14">iac</text>
    <text x="174" y="72" fill="#3fb950" font-family="ui-monospace, SFMono-Regular, Menlo, Consolas, monospace" font-size="14">→</text>
    <text x="204" y="72" fill="#d2a8ff" font-family="ui-monospace, SFMono-Regular, Menlo, Consolas, monospace" font-size="14">platform</text>

    <text x="24" y="112" fill="#79c0ff" font-family="ui-monospace, SFMono-Regular, Menlo, Consolas, monospace" font-size="14">k8s/talos</text>
    <text x="24" y="142" fill="#a5d6ff" font-family="ui-monospace, SFMono-Regular, Menlo, Consolas, monospace" font-size="14">observability + secrets + backups</text>
    <text x="24" y="172" fill="#d2a8ff" font-family="ui-monospace, SFMono-Regular, Menlo, Consolas, monospace" font-size="14">local llms + agents + mlops</text>
  </g>
</svg>
