<svg width="1280" height="430" viewBox="0 0 1280 430" fill="none" xmlns="http://www.w3.org/2000/svg">
  <rect width="1280" height="430" rx="18" fill="#0d1117"/>
  <defs>
    <pattern id="dots" width="24" height="24" patternUnits="userSpaceOnUse">
      <circle cx="1" cy="1" r="1" fill="#ffffff" opacity="0.08"/>
    </pattern>
    <linearGradient id="platform" x1="0" y1="0" x2="1" y2="1">
      <stop stop-color="#1f6feb" stop-opacity="0.42"/>
      <stop offset="1" stop-color="#0d1117" stop-opacity="0.92"/>
    </linearGradient>
    <linearGradient id="ai" x1="0" y1="0" x2="1" y2="1">
      <stop stop-color="#a371f7" stop-opacity="0.44"/>
      <stop offset="1" stop-color="#0d1117" stop-opacity="0.92"/>
    </linearGradient>
    <linearGradient id="systems" x1="0" y1="0" x2="1" y2="1">
      <stop stop-color="#3fb950" stop-opacity="0.42"/>
      <stop offset="1" stop-color="#0d1117" stop-opacity="0.92"/>
    </linearGradient>
  </defs>
  <rect width="1280" height="430" fill="url(#dots)" opacity="0.5"/>

  <g font-family="Inter, ui-sans-serif, system-ui, sans-serif">
    <rect x="64" y="54" width="356" height="284" rx="18" fill="url(#platform)" stroke="#30363d"/>
    <rect x="462" y="54" width="356" height="284" rx="18" fill="url(#ai)" stroke="#30363d"/>
    <rect x="860" y="54" width="356" height="284" rx="18" fill="url(#systems)" stroke="#30363d"/>

    <text x="94" y="104" fill="#79c0ff" font-size="22" font-weight="800">Platform Engineering</text>
    <text x="94" y="136" fill="#c9d1d9" font-size="15" font-weight="500">Cloud, datacenter, GitOps, IaC, CI/CD,</text>
    <text x="94" y="158" fill="#c9d1d9" font-size="15" font-weight="500">orchestration, secrets and observability.</text>

    <text x="492" y="104" fill="#d2a8ff" font-size="22" font-weight="800">MLOps / AI Systems</text>
    <text x="492" y="136" fill="#c9d1d9" font-size="15" font-weight="500">LLM tooling, local models, retrieval,</text>
    <text x="492" y="158" fill="#c9d1d9" font-size="15" font-weight="500">traces, routing and evaluation loops.</text>

    <text x="890" y="104" fill="#56d364" font-size="22" font-weight="800">Reproducible Systems</text>
    <text x="890" y="136" fill="#c9d1d9" font-size="15" font-weight="500">NixOS, homelab automation, backups,</text>
    <text x="890" y="158" fill="#c9d1d9" font-size="15" font-weight="500">rootfs containers and recovery flows.</text>
  </g>

  <g font-family="ui-monospace, SFMono-Regular, Menlo, Consolas, monospace" font-size="13" font-weight="700">
    <g transform="translate(94 204)">
      <rect width="84" height="30" rx="15" fill="#0d419d" stroke="#1f6feb"/><text x="18" y="20" fill="#c9d1ff">Azure</text>
      <rect x="94" width="70" height="30" rx="15" fill="#0d419d" stroke="#1f6feb"/><text x="114" y="20" fill="#c9d1ff">AWS</text>
      <rect x="174" width="98" height="30" rx="15" fill="#0d419d" stroke="#1f6feb"/><text x="193" y="20" fill="#c9d1ff">IBM Cloud</text>
      <rect y="48" width="102" height="30" rx="15" fill="#0d419d" stroke="#1f6feb"/><text x="18" y="68" fill="#c9d1ff">Kubernetes</text>
      <rect x="112" y="48" width="72" height="30" rx="15" fill="#0d419d" stroke="#1f6feb"/><text x="132" y="68" fill="#c9d1ff">Talos</text>
      <rect x="194" y="48" width="74" height="30" rx="15" fill="#0d419d" stroke="#1f6feb"/><text x="213" y="68" fill="#c9d1ff">Nomad</text>
    </g>

    <g transform="translate(492 204)">
      <rect width="84" height="30" rx="15" fill="#3b1d75" stroke="#a371f7"/><text x="18" y="20" fill="#e6d4ff">OpenAI</text>
      <rect x="94" width="82" height="30" rx="15" fill="#3b1d75" stroke="#a371f7"/><text x="112" y="20" fill="#e6d4ff">Claude</text>
      <rect x="186" width="96" height="30" rx="15" fill="#3b1d75" stroke="#a371f7"/><text x="204" y="20" fill="#e6d4ff">Local LLM</text>
      <rect y="48" width="94" height="30" rx="15" fill="#3b1d75" stroke="#a371f7"/><text x="18" y="68" fill="#e6d4ff">Langfuse</text>
      <rect x="104" y="48" width="92" height="30" rx="15" fill="#3b1d75" stroke="#a371f7"/><text x="122" y="68" fill="#e6d4ff">Phoenix</text>
      <rect x="206" y="48" width="84" height="30" rx="15" fill="#3b1d75" stroke="#a371f7"/><text x="224" y="68" fill="#e6d4ff">LiteLLM</text>
    </g>

    <g transform="translate(890 204)">
      <rect width="82" height="30" rx="15" fill="#113c20" stroke="#3fb950"/><text x="18" y="20" fill="#c8f7d2">NixOS</text>
      <rect x="92" width="94" height="30" rx="15" fill="#113c20" stroke="#3fb950"/><text x="110" y="20" fill="#c8f7d2">TrueNAS</text>
      <rect x="196" width="92" height="30" rx="15" fill="#113c20" stroke="#3fb950"/><text x="214" y="20" fill="#c8f7d2">Proxmox</text>
      <rect y="48" width="98" height="30" rx="15" fill="#113c20" stroke="#3fb950"/><text x="18" y="68" fill="#c8f7d2">10Gbit</text>
      <rect x="108" y="48" width="104" height="30" rx="15" fill="#113c20" stroke="#3fb950"/><text x="126" y="68" fill="#c8f7d2">Backups</text>
      <rect x="222" y="48" width="80" height="30" rx="15" fill="#113c20" stroke="#3fb950"/><text x="240" y="68" fill="#c8f7d2">DNS HA</text>
    </g>
  </g>

  <text x="64" y="384" fill="#8b949e" font-family="ui-monospace, SFMono-Regular, Menlo, Consolas, monospace" font-size="14">Cloud + automation · AI systems + observability · NixOS + recovery-minded homelab infrastructure</text>
</svg>
